<?xml version="1.0" standalone="no"?>
<!DOCTYPE svg PUBLIC "-//W3C//DTD SVG 20010904//EN"
 "http://www.w3.org/TR/2001/REC-SVG-20010904/DTD/svg10.dtd">
<svg version="1.0" xmlns="http://www.w3.org/2000/svg"
 width="240.000000pt" height="240.000000pt" viewBox="0 0 240.000000 240.000000"
 preserveAspectRatio="xMidYMid meet">
<metadata>
Created by potrace 1.14, written by Peter Selinger 2001-2017
</metadata>
<g transform="translate(0.000000,240.000000) scale(0.100000,-0.100000)"
fill="#000000" stroke="none">
<path d="M0 1210 c0 -655 2 -1190 3 -1190 2 0 44 20 93 45 49 24 163 78 253
119 159 73 164 76 135 86 -104 40 -182 96 -185 136 -1 8 -2 20 -3 27 -4 19 22
77 57 132 57 88 57 88 32 111 -13 12 -44 25 -71 29 -116 17 -149 94 -100 236
10 28 12 48 5 60 -13 26 -11 85 5 124 22 52 101 130 183 181 40 26 73 52 73
58 0 7 9 21 20 31 15 14 29 16 65 11 l45 -7 0 43 c0 24 5 49 12 56 16 16 61
15 105 -3 19 -8 37 -15 39 -15 2 0 8 19 15 43 22 85 60 97 132 42 l45 -34 37
44 c55 68 98 59 151 -31 10 -16 14 -15 59 19 26 20 56 37 65 37 22 0 45 -26
65 -73 8 -20 17 -37 18 -37 2 0 25 7 51 16 37 13 53 14 72 5 21 -9 24 -17 24
-71 0 -57 1 -60 25 -60 23 0 25 3 25 49 0 65 14 99 44 111 l25 9 -18 43 c-18
42 -172 432 -265 671 -25 64 -46 122 -46 127 0 7 -230 10 -645 10 l-645 0 0
-1190z m690 1166 c0 -3 -4 -8 -10 -11 -5 -3 -10 -1 -10 4 0 6 5 11 10 11 6 0
10 -2 10 -4z m-96 -657 c-3 -5 -10 -7 -15 -3 -5 3 -7 10 -3 15 3 5 10 7 15 3
5 -3 7 -10 3 -15z m-294 -1449 c-19 -11 -39 -19 -45 -19 -5 0 6 8 25 19 19 11
40 19 45 19 6 0 -6 -8 -25 -19z m-155 -70 c-3 -5 -12 -10 -18 -10 -7 0 -6 4 3
10 19 12 23 12 15 0z"/>
<path d="M1302 2388 c3 -7 33 -85 66 -173 46 -121 190 -487 269 -681 3 -7 -5
-10 -21 -7 -40 8 -60 -34 -53 -107 7 -65 7 -65 -51 -54 -30 6 -30 6 -25 63 4
45 2 59 -12 71 -15 12 -23 12 -65 -3 -26 -9 -52 -17 -58 -17 -6 0 -18 20 -28
45 -9 25 -25 50 -35 56 -23 12 -62 -7 -98 -45 -14 -14 -28 -26 -32 -26 -4 0
-19 20 -33 44 -42 71 -85 73 -130 6 -14 -22 -29 -40 -31 -40 -3 0 -28 16 -56
35 -28 19 -57 35 -64 35 -20 0 -42 -32 -54 -77 -13 -48 -17 -49 -68 -28 -46
20 -89 19 -97 -1 -3 -9 -6 -34 -6 -56 l0 -40 -56 7 c-55 7 -55 6 -67 -24 -8
-22 -30 -42 -74 -68 -78 -45 -160 -125 -184 -178 -21 -45 -25 -105 -8 -122 8
-8 6 -25 -7 -65 -10 -29 -18 -76 -18 -105 -1 -79 30 -106 137 -117 16 -2 35
-13 43 -25 8 -11 22 -21 30 -21 8 0 14 -2 14 -4 0 -3 -27 -47 -60 -99 -96
-150 -85 -194 66 -264 119 -55 155 -54 166 2 2 13 11 19 23 17 11 -1 44 -5 72
-9 l53 -6 6 32 c6 30 8 31 63 31 79 0 105 19 98 73 -3 22 -14 52 -24 66 -25
34 -98 71 -143 72 -19 0 -43 3 -52 7 -10 4 60 7 155 7 196 0 262 12 410 76
108 46 182 90 247 147 44 38 53 42 83 37 l34 -7 -19 -36 c-25 -50 -24 -122 3
-156 25 -31 47 -33 82 -6 15 12 40 20 62 20 33 0 38 4 56 45 22 50 23 50 59
30 14 -8 40 -14 57 -15 28 0 35 -5 47 -35 16 -38 44 -46 70 -20 11 12 13 22 6
40 -6 17 -5 27 6 35 27 23 10 62 -61 140 -18 19 -46 69 -62 111 l-31 77 44 30
c111 79 155 277 94 421 -47 107 -172 181 -284 167 -28 -4 -61 -7 -74 -9 -21
-2 -30 15 -101 198 -104 265 -99 237 -54 272 89 70 239 165 358 227 29 15 24
15 -98 16 l-128 0 -89 -62 c-49 -34 -91 -60 -93 -57 -3 2 -13 29 -25 59 l-20
55 -67 3 c-52 2 -66 0 -63 -10z m257 -503 c46 -115 86 -216 89 -224 3 -9 1
-12 -6 -7 -10 6 -182 431 -182 451 0 25 24 -27 99 -220z m325 -230 c90 -38
151 -129 161 -241 4 -53 4 -56 -6 -24 -41 133 -64 172 -132 221 -57 41 -69 36
-17 -8 42 -36 100 -116 100 -137 0 -6 -15 12 -34 40 -41 61 -106 119 -161 145
l-40 19 46 0 c26 0 63 -7 83 -15z m-966 -137 c18 -16 28 -28 22 -28 -6 0 -30
19 -53 41 -43 43 -27 36 31 -13z m201 7 c11 -19 17 -35 13 -35 -5 0 -16 16
-25 35 -9 19 -15 35 -13 35 2 0 13 -16 25 -35z m557 -157 c19 -21 31 -38 25
-38 -22 0 -111 129 -111 161 0 7 11 -9 25 -37 14 -27 41 -66 61 -86z m14 97
c0 -5 -5 -3 -10 5 -5 8 -10 20 -10 25 0 6 5 3 10 -5 5 -8 10 -19 10 -25z
m-242 11 c-9 -7 -35 -19 -58 -26 -34 -11 -43 -11 -53 0 -7 7 -7 11 -2 8 6 -3
35 3 65 13 67 21 70 22 48 5z m277 -15 c25 -49 275 -674 271 -678 -4 -4 -55
114 -188 442 -112 273 -108 265 -103 265 2 0 11 -13 20 -29z m-1025 9 c8 -5
11 -10 5 -10 -5 0 -17 5 -25 10 -8 5 -10 10 -5 10 6 0 17 -5 25 -10z m50 -20
c8 -5 11 -10 5 -10 -5 0 -17 5 -25 10 -8 5 -10 10 -5 10 6 0 17 -5 25 -10z
m-177 -87 c-7 -2 -19 -2 -25 0 -7 3 -2 5 12 5 14 0 19 -2 13 -5z m159 -30 c40
-24 67 -68 51 -84 -10 -10 -15 -6 -22 14 -12 31 -58 57 -101 57 -18 0 -29 4
-25 10 9 15 -46 12 -95 -5 -24 -8 -45 -13 -47 -11 -2 2 15 11 39 19 24 9 50
18 58 21 27 10 111 -3 142 -21z m801 0 c-7 -2 -19 -2 -25 0 -7 3 -2 5 12 5 14
0 19 -2 13 -5z m137 -100 c0 -3 -15 6 -34 20 -33 26 -46 26 -46 1 0 -15 65
-38 80 -29 5 3 15 3 22 -1 25 -16 -28 -21 -69 -7 -45 15 -49 25 -33 67 l9 25
36 -36 c19 -19 35 -37 35 -40z m-33 -45 c7 -5 27 -7 45 -3 22 4 28 3 18 -3
-24 -14 -73 -24 -66 -13 4 5 -7 12 -24 16 -16 4 -32 11 -36 16 -7 12 45 1 63
-13z m-359 -40 c13 -13 16 -58 4 -58 -15 0 -32 24 -32 47 0 25 10 29 28 11z
m582 -103 c0 -5 -5 -3 -10 5 -5 8 -10 20 -10 25 0 6 5 3 10 -5 5 -8 10 -19 10
-25z m-22 -13 l10 -28 -51 13 c-28 7 -63 13 -77 14 -21 1 -20 2 10 11 27 8 40
6 61 -6 32 -19 39 -20 39 -6 0 6 -10 15 -22 20 -23 9 -23 9 -1 9 14 1 24 -8
31 -27z m-980 -14 c14 -14 16 -68 2 -68 -13 0 -30 34 -30 59 0 24 10 27 28 9z
m1022 -23 c0 -5 -5 -3 -10 5 -5 8 -10 20 -10 25 0 6 5 3 10 -5 5 -8 10 -19 10
-25z m-130 5 c50 0 88 -32 95 -80 l5 -35 -10 31 c-14 45 -41 64 -99 71 -28 3
-54 10 -58 16 -4 6 0 8 11 4 10 -4 35 -7 56 -7z m119 -47 c13 -28 13 -28 -8
-9 -22 20 -27 36 -13 36 5 0 14 -12 21 -27z m31 -8 c0 -5 -5 -3 -10 5 -5 8
-10 20 -10 25 0 6 5 3 10 -5 5 -8 10 -19 10 -25z m20 -50 c0 -5 -5 -3 -10 5
-5 8 -10 20 -10 25 0 6 5 3 10 -5 5 -8 10 -19 10 -25z m20 -50 c0 -5 -5 -3
-10 5 -5 8 -10 20 -10 25 0 6 5 3 10 -5 5 -8 10 -19 10 -25z m-1443 19 c-3 -3
-12 -4 -19 -1 -8 3 -5 6 6 6 11 1 17 -2 13 -5z m1523 -36 c15 -21 17 -28 6
-19 -16 13 -41 51 -33 51 2 0 14 -15 27 -32z m-60 -33 c0 -5 -5 -3 -10 5 -5 8
-10 20 -10 25 0 6 5 3 10 -5 5 -8 10 -19 10 -25z m-1145 -254 c22 -10 47 -26
55 -36 9 -11 1 -8 -23 8 -24 17 -58 28 -95 32 -85 9 -93 13 -32 14 34 0 70 -6
95 -18z m-152 -55 c18 -17 25 -25 16 -18 -10 8 -23 11 -28 7 -11 -6 -71 24
-71 35 0 28 40 16 83 -24z"/>
<path d="M1460 2391 c0 -5 7 -25 15 -45 l15 -36 53 37 c28 20 56 40 62 45 5 4
-26 8 -68 8 -42 0 -77 -4 -77 -9z"/>
<path d="M1850 2349 c-111 -60 -179 -103 -275 -172 -38 -28 -71 -52 -73 -53
-2 -1 35 -98 82 -215 57 -141 90 -213 98 -210 7 2 42 6 78 9 124 8 243 -64
292 -176 45 -104 29 -280 -35 -369 -17 -24 -33 -43 -36 -43 -3 -1 -19 -11 -35
-24 l-28 -24 27 -67 c14 -37 46 -91 70 -120 24 -30 48 -62 53 -72 10 -17 19
-16 169 23 l158 40 3 762 2 762 -227 0 -228 0 -95 -51z m540 -209 c0 -5 -4
-10 -10 -10 -5 0 -10 5 -10 10 0 6 5 10 10 10 6 0 10 -4 10 -10z m-373 -1126
c-3 -3 -12 -4 -19 -1 -8 3 -5 6 6 6 11 1 17 -2 13 -5z m170 -80 c-3 -3 -12 -4
-19 -1 -8 3 -5 6 6 6 11 1 17 -2 13 -5z"/>
<path d="M2237 822 c-121 -32 -141 -41 -160 -66 -19 -27 -20 -29 -3 -23 10 4
87 26 172 49 127 34 154 45 154 60 0 23 0 23 -163 -20z"/>
<path d="M1513 807 c-137 -121 -337 -203 -556 -228 l-105 -12 33 -33 c20 -19
37 -49 41 -69 3 -19 9 -35 13 -35 3 0 74 24 156 53 83 30 228 80 323 111 94
32 172 60 172 62 0 3 -5 24 -11 48 -8 35 -8 50 5 81 21 50 20 55 -9 55 -14 0
-41 -14 -62 -33z m17 -67 c-8 -5 -22 -9 -30 -9 -10 0 -8 3 5 9 27 12 43 12 25
0z"/>
<path d="M2305 750 c-18 -7 -18 -9 9 -19 21 -8 26 -15 19 -22 -8 -8 -18 -6
-36 5 -23 16 -26 16 -43 -1 -11 -11 -34 -18 -61 -19 -50 -2 -61 -8 -44 -27 6
-8 9 -22 5 -31 -7 -17 11 -22 21 -6 10 16 44 12 73 -10 15 -11 47 -22 71 -26
43 -7 44 -6 38 17 -9 36 2 69 24 69 24 0 25 30 2 30 -17 1 -17 1 0 14 9 7 17
18 17 25 0 13 -65 14 -95 1z"/>
<path d="M1836 741 c-4 -5 -2 -12 3 -15 5 -4 12 -2 15 3 4 5 2 12 -3 15 -5 4
-12 2 -15 -3z"/>
<path d="M1838 713 c-10 -2 -18 -8 -18 -12 0 -4 -9 -17 -20 -29 l-21 -22 33 1
c43 0 140 31 145 45 7 20 -69 30 -119 17z"/>
<path d="M1695 639 c-33 -21 -66 -24 -82 -8 -7 7 -71 -10 -219 -59 -327 -110
-448 -157 -477 -186 -19 -19 -37 -26 -64 -26 -51 0 -83 -10 -83 -25 0 -28 -35
-45 -82 -39 -40 6 -48 3 -80 -25 -23 -20 -42 -29 -52 -25 -19 7 -197 -67 -406
-170 -143 -70 -144 -71 -103 -74 36 -3 71 12 263 107 122 61 227 111 233 111
16 0 -163 -115 -263 -169 l-85 -46 99 -3 c69 -2 103 1 114 10 12 10 14 10 8 1
-10 -18 12 -16 30 2 13 13 19 13 51 0 19 -8 47 -15 62 -15 25 1 25 1 -9 20
-19 11 -30 19 -25 20 6 0 25 -9 43 -20 38 -24 167 -29 175 -7 4 9 6 9 6 0 2
-27 21 -11 32 26 l12 40 93 3 c52 2 94 0 94 -4 0 -15 -46 -38 -77 -38 -18 0
-33 -4 -33 -10 0 -5 15 -10 34 -10 19 0 38 -4 41 -10 3 -5 18 -10 33 -9 l27 0
-25 10 c-35 14 -36 17 -7 40 36 28 35 49 -3 49 -28 0 -30 2 -30 41 0 43 -4 42
60 23 18 -5 20 -14 21 -87 1 -88 16 -67 18 27 1 45 3 48 24 42 12 -3 26 -6 31
-6 4 0 5 -32 1 -71 -5 -52 -4 -70 4 -65 6 4 11 32 11 62 0 57 10 66 43 41 15
-10 16 -20 8 -59 -6 -38 -6 -48 5 -48 14 0 30 80 21 104 -4 9 -28 27 -54 41
-26 14 -38 23 -25 19 18 -4 25 -1 29 14 3 15 17 23 45 27 24 4 41 14 44 23 10
33 21 47 49 62 38 21 54 48 36 59 -25 16 -1 34 40 28 41 -5 39 -7 53 56 5 19
17 33 39 43 18 8 47 26 66 39 19 14 52 30 75 36 22 6 55 24 73 40 18 15 51 33
73 40 21 7 37 16 34 20 -8 14 -37 9 -69 -12z m-869 -435 c-9 -8 -16 -20 -16
-26 0 -6 -3 -9 -6 -6 -8 9 14 48 27 48 6 0 3 -7 -5 -16z m67 9 c-7 -2 -21 -2
-30 0 -10 3 -4 5 12 5 17 0 24 -2 18 -5z m70 -10 c-7 -2 -19 -2 -25 0 -7 3 -2
5 12 5 14 0 19 -2 13 -5z m44 -9 c-3 -3 -12 -4 -19 -1 -8 3 -5 6 6 6 11 1 17
-2 13 -5z m-92 -16 c1 -2 5 -20 8 -40 6 -38 5 -38 -29 -38 -29 0 -34 4 -34 23
0 12 -4 29 -9 36 -7 12 -14 5 -27 -27 -9 -24 -18 -41 -21 -39 -2 2 6 26 17 52
20 46 21 47 56 42 20 -4 38 -7 39 -9z m132 6 c-3 -3 -12 -4 -19 -1 -8 3 -5 6
6 6 11 1 17 -2 13 -5z m-266 -81 c-12 -20 -14 -14 -5 12 4 9 9 14 11 11 3 -2
0 -13 -6 -23z m66 5 c-3 -8 -6 -5 -6 6 -1 11 2 17 5 13 3 -3 4 -12 1 -19z
m-377 -55 c-8 -3 -24 -10 -35 -15 -20 -9 -20 -9 -1 6 11 9 27 16 35 15 14 0
14 -1 1 -6z"/>
<path d="M1646 483 c-14 -38 -33 -92 -41 -121 -18 -60 -23 -49 59 -145 49 -58
49 -60 54 -138 l5 -79 112 0 112 0 -3 32 -3 33 7 -30 7 -30 108 -3 c59 -1 107
1 107 6 0 5 -10 22 -22 38 l-22 29 22 -19 c12 -10 24 -27 27 -37 4 -11 11 -19
16 -19 17 0 9 37 -11 55 -23 21 -87 114 -97 142 -3 10 17 -16 45 -58 28 -42
58 -82 67 -89 8 -7 15 -21 15 -31 0 -15 8 -19 40 -19 l39 0 -48 48 c-26 26
-64 71 -83 101 -32 47 -35 56 -26 84 20 63 22 81 8 72 -8 -5 -11 -4 -7 2 6 10
225 7 236 -3 2 -2 1 -14 -3 -27 -6 -26 -43 -47 -84 -47 l-27 -1 31 -13 c37
-16 64 -51 64 -83 0 -12 5 -25 10 -28 6 -4 10 7 10 25 0 22 4 31 13 27 9 -3
13 6 14 31 1 31 0 33 -9 17 -6 -11 -12 -22 -14 -24 -2 -2 -14 5 -27 16 l-25
19 29 16 c52 30 47 98 -7 98 -18 0 -24 5 -24 23 0 42 14 51 49 33 27 -15 31
-15 31 -1 0 18 -118 75 -155 75 -19 0 -37 -16 -73 -60 -59 -76 -112 -168 -112
-196 0 -12 16 -46 35 -75 28 -44 30 -48 8 -23 -16 17 -38 34 -50 38 -11 4 -27
13 -33 21 -15 17 -46 20 -55 4 -4 -6 3 -21 14 -33 21 -22 20 -54 0 -57 -38 -6
-44 -2 -50 30 -6 30 -3 38 31 71 44 43 71 122 73 214 l2 60 -42 23 c-51 29
-220 73 -278 73 l-43 0 -26 -67z m121 33 c0 0 3 -19 5 -41 3 -38 2 -40 -27
-40 -24 0 -30 5 -36 30 -4 17 -10 38 -14 48 -7 17 -4 18 31 11 22 -3 40 -7 41
-8z m-92 -49 c-14 -34 -30 -53 -20 -24 19 54 26 69 30 65 3 -3 -2 -21 -10 -41z
m173 37 c20 -6 22 -12 22 -85 0 -44 -4 -79 -9 -79 -5 0 -22 5 -37 10 l-27 11
31 31 c41 39 40 48 -3 48 -33 0 -35 2 -35 35 0 37 9 42 58 29z m87 -28 c16
-12 17 -20 9 -77 -6 -44 -14 -65 -24 -66 -30 -6 -36 11 -32 85 4 75 12 84 47
58z m-238 -38 c-3 -7 -5 -2 -5 12 0 14 2 19 5 13 2 -7 2 -19 0 -25z m307 7
c16 -12 17 -21 10 -62 -8 -43 -12 -48 -37 -51 -24 -3 -28 0 -24 15 3 10 8 39
12 66 7 51 10 54 39 32z m289 -22 c17 -5 21 -30 11 -70 -5 -20 -13 -23 -51
-23 l-45 0 7 38 7 37 -29 -25 c-15 -14 -10 -6 12 18 26 28 45 40 55 36 8 -3
23 -9 33 -11z m-476 -20 c-10 -10 -37 -23 -60 -30 -40 -10 -40 -11 -11 -12 21
-1 43 -12 64 -31 36 -34 42 -36 34 -16 -4 12 2 13 33 5 21 -5 57 -9 81 -9 23
0 42 -1 42 -3 0 -2 -7 -25 -16 -50 -20 -58 -51 -77 -127 -77 -39 0 -58 5 -68
17 -12 15 -12 16 4 10 9 -3 17 -2 17 3 0 6 -4 10 -9 10 -6 0 -38 26 -71 57
-59 54 -62 59 -57 95 7 51 -16 51 -31 -1 -18 -59 -16 -66 43 -129 30 -33 55
-63 55 -67 0 -13 -40 27 -85 85 -37 49 -41 58 -33 85 24 79 18 75 120 75 88 0
91 -1 75 -17z m284 -170 c-12 -20 -14 -14 -5 12 4 9 9 14 11 11 3 -2 0 -13 -6
-23z"/>
<path d="M1313 142 c-43 -64 -76 -133 -68 -140 4 -4 14 2 22 13 13 16 15 17
10 2 -5 -12 -1 -17 12 -17 14 0 17 6 13 25 -2 14 -9 22 -15 18 -6 -4 -7 -1 -2
6 5 9 23 11 64 6 79 -9 91 -14 91 -36 0 -10 5 -19 10 -19 6 0 10 12 10 26 0
17 -6 28 -20 31 -15 4 -20 14 -20 42 0 47 5 52 39 40 26 -9 27 -12 24 -77 -2
-48 0 -60 6 -42 5 14 9 42 10 63 1 42 1 41 35 25 20 -8 24 -17 21 -35 -3 -12
-7 -34 -10 -48 -3 -14 -1 -25 4 -25 5 0 13 20 17 45 7 35 12 43 24 35 9 -5 13
-22 12 -44 -3 -40 12 -49 22 -14 11 44 6 58 -32 83 -39 26 -200 85 -230 85 -9
0 -31 -21 -49 -48z m94 2 c3 -8 2 -30 -1 -49 -6 -32 -9 -35 -34 -29 -36 9 -35
7 -18 49 15 34 15 37 0 31 -14 -5 -15 -4 -5 8 14 16 50 10 58 -10z m-83 -39
c-9 -14 -18 -25 -21 -25 -5 0 5 18 20 38 17 22 18 13 1 -13z"/>
<path d="M791 39 c-14 -41 -14 -39 8 -39 14 0 20 9 23 35 5 45 -16 47 -31 4z"/>
<path d="M1643 3 c9 -2 23 -2 30 0 6 3 -1 5 -18 5 -16 0 -22 -2 -12 -5z"/>
</g>
</svg>
