<?xml version="1.0" standalone="no"?>
<!DOCTYPE svg PUBLIC "-//W3C//DTD SVG 20010904//EN"
 "http://www.w3.org/TR/2001/REC-SVG-20010904/DTD/svg10.dtd">
<svg version="1.0" xmlns="http://www.w3.org/2000/svg"
 width="240.000000pt" height="240.000000pt" viewBox="0 0 240.000000 240.000000"
 preserveAspectRatio="xMidYMid meet">
<metadata>
Created by potrace 1.14, written by Peter Selinger 2001-2017
</metadata>
<g transform="translate(0.000000,240.000000) scale(0.100000,-0.100000)"
fill="#000000" stroke="none">
<path d="M353 2385 c-120 -26 -237 -115 -296 -224 -55 -100 -57 -127 -57 -844
l0 -657 71 35 c39 20 75 35 80 33 6 -2 -26 -21 -70 -43 l-81 -39 0 -93 c0 -68
3 -93 13 -93 9 0 9 -2 -1 -9 -11 -6 -11 -21 -2 -74 7 -37 16 -69 20 -72 4 -3
56 18 115 46 59 28 110 47 113 43 4 -4 1 -9 -6 -11 -36 -13 -212 -103 -212
-109 0 -11 43 -84 50 -84 4 0 64 27 133 60 70 33 132 60 139 60 6 0 -6 15 -28
34 -36 31 -39 37 -39 87 0 45 6 63 36 109 55 85 53 81 27 71 -29 -11 -230
-101 -242 -109 -5 -3 -6 0 -2 7 9 14 74 47 191 96 50 21 91 39 93 41 2 1 -8
13 -21 27 -17 16 -40 26 -71 29 -58 7 -94 30 -112 75 -14 32 -13 43 1 107 19
82 20 95 10 153 -15 84 57 182 200 275 33 21 67 51 76 66 14 24 22 27 67 27
l52 0 0 38 c0 42 28 77 60 77 11 0 37 -7 57 -15 19 -8 39 -15 43 -15 4 0 13
20 19 44 10 42 40 76 67 76 7 0 34 -15 62 -34 l50 -35 31 40 c52 64 105 61
147 -11 10 -16 21 -30 25 -30 3 0 23 14 44 30 63 50 114 33 140 -48 5 -19 12
-22 28 -17 103 30 140 11 135 -70 -3 -45 -1 -50 19 -53 20 -3 21 0 17 30 -9
51 12 117 42 130 13 6 23 14 22 18 -2 4 -77 194 -168 423 l-164 417 -431 -1
c-322 0 -446 -4 -492 -14z m337 -10 c0 -8 -7 -15 -15 -15 -8 0 -15 7 -15 15 0
8 7 15 15 15 8 0 15 -7 15 -15z m-420 -595 c0 -5 -4 -10 -10 -10 -5 0 -10 5
-10 10 0 6 5 10 10 10 6 0 10 -4 10 -10z m327 -46 c9 -23 -11 -38 -26 -20 -13
16 -7 36 10 36 5 0 12 -7 16 -16z m-382 -1083 c7 -12 -12 -24 -25 -16 -11 7
-4 25 10 25 5 0 11 -4 15 -9z"/>
<path d="M1866 2350 c-83 -41 -271 -160 -340 -215 -19 -14 -17 -21 63 -222 45
-114 82 -208 84 -209 1 -1 26 2 55 8 66 11 135 -2 204 -39 119 -65 177 -215
144 -372 -9 -41 -15 -76 -13 -77 1 -1 76 17 167 41 l165 42 3 324 c2 197 -1
349 -8 389 -22 131 -113 260 -227 323 -42 22 -154 57 -188 57 -5 0 -54 -22
-109 -50z m288 -440 c-13 -13 -16 -13 -24 0 -13 21 7 43 25 27 11 -10 11 -15
-1 -27z m16 -284 c0 -3 -4 -8 -10 -11 -5 -3 -10 -1 -10 4 0 6 5 11 10 11 6 0
10 -2 10 -4z"/>
<path d="M1497 2057 c14 -37 28 -65 30 -63 5 5 -36 109 -48 120 -5 5 3 -20 18
-57z"/>
<path d="M1467 2037 c14 -37 28 -65 30 -63 5 5 -36 109 -48 120 -5 5 3 -20 18
-57z"/>
<path d="M1440 2045 c0 -5 5 -17 10 -25 5 -8 10 -10 10 -5 0 6 -5 17 -10 25
-5 8 -10 11 -10 5z"/>
<path d="M1460 1995 c0 -5 5 -17 10 -25 5 -8 10 -10 10 -5 0 6 -5 17 -10 25
-5 8 -10 11 -10 5z"/>
<path d="M1530 1977 c0 -13 72 -188 76 -184 2 2 -12 44 -32 93 -35 85 -44 105
-44 91z"/>
<path d="M1500 1955 c0 -5 5 -17 10 -25 5 -8 10 -10 10 -5 0 6 -5 17 -10 25
-5 8 -10 11 -10 5z"/>
<path d="M1486 1930 c3 -14 11 -32 16 -40 6 -10 7 -7 2 10 -3 14 -11 32 -16
40 -6 10 -7 7 -2 -10z"/>
<path d="M1524 1895 c3 -11 41 -106 83 -211 66 -165 79 -190 97 -188 23 2 61
-29 78 -61 6 -11 -6 -2 -26 20 -21 22 -36 36 -34 30 8 -21 39 -91 54 -120 14
-28 13 -19 -2 23 -5 13 -4 14 6 6 6 -7 13 -29 14 -50 2 -22 27 -97 55 -169 54
-133 68 -161 56 -112 -4 15 -3 27 3 27 23 0 101 83 120 127 25 59 39 155 31
208 -5 34 -6 31 -8 -25 -1 -87 -13 -123 -51 -162 -18 -18 -29 -26 -25 -18 4 8
-15 -7 -43 -34 -29 -28 -53 -48 -55 -45 -2 2 -12 29 -23 59 -16 43 -19 65 -12
100 12 68 -11 133 -73 205 -66 77 -80 98 -83 130 -4 33 18 45 86 45 116 0 193
-47 245 -149 35 -66 45 -64 14 4 -24 52 -95 117 -154 140 -46 17 -159 18 -199
1 -14 -6 -21 1 -34 33 -9 23 -18 40 -20 38 -3 -2 3 -20 11 -40 8 -20 15 -44
15 -54 0 -36 -27 12 -75 132 -26 66 -49 122 -53 125 -3 3 -2 -4 2 -15z m174
-370 c-3 -3 -9 2 -12 12 -6 14 -5 15 5 6 7 -7 10 -15 7 -18z m312 -315 c-6
-11 -13 -20 -16 -20 -2 0 0 9 6 20 6 11 13 20 16 20 2 0 0 -9 -6 -20z m-41
-56 c-13 -14 -33 -30 -44 -36 -11 -6 -2 6 20 25 47 43 58 48 24 11z"/>
<path d="M1530 1815 c0 -5 5 -17 10 -25 5 -8 10 -10 10 -5 0 6 -5 17 -10 25
-5 8 -10 11 -10 5z"/>
<path d="M1550 1765 c0 -5 5 -17 10 -25 5 -8 10 -10 10 -5 0 6 -5 17 -10 25
-5 8 -10 11 -10 5z"/>
<path d="M1570 1715 c0 -5 5 -17 10 -25 5 -8 10 -10 10 -5 0 6 -5 17 -10 25
-5 8 -10 11 -10 5z"/>
<path d="M1590 1665 c0 -5 5 -17 10 -25 5 -8 10 -10 10 -5 0 6 -5 17 -10 25
-5 8 -10 11 -10 5z"/>
<path d="M1610 1615 c0 -5 5 -17 10 -25 5 -8 10 -10 10 -5 0 6 -5 17 -10 25
-5 8 -10 11 -10 5z"/>
<path d="M1045 1600 c-12 -4 -34 -26 -49 -49 -16 -23 -31 -41 -33 -41 -2 0
-25 16 -50 35 -75 57 -104 45 -120 -52 -6 -37 -10 -38 -56 -20 -89 38 -117 26
-117 -48 l0 -44 -57 2 c-53 2 -58 0 -61 -20 -2 -15 -26 -35 -75 -64 -145 -86
-232 -213 -195 -284 14 -25 13 -34 -3 -87 -28 -87 -25 -131 9 -169 24 -27 37
-33 85 -37 31 -2 57 -8 57 -13 0 -5 13 -17 29 -27 l29 -18 -54 -84 c-71 -111
-79 -138 -60 -184 13 -32 28 -43 108 -82 52 -24 107 -46 123 -47 25 -2 30 3
39 31 9 34 10 34 55 26 86 -14 95 -12 101 21 5 28 7 29 68 31 35 2 70 8 78 15
24 20 17 83 -12 118 -36 43 -58 53 -139 66 -39 6 -68 15 -65 20 3 6 14 9 25 7
11 -2 81 -4 155 -5 98 -1 155 3 208 16 190 45 337 117 447 218 36 33 44 37 75
30 39 -8 40 -13 15 -80 -17 -48 -13 -95 13 -123 20 -24 47 -23 83 2 16 12 40
20 56 18 24 -3 31 3 50 41 28 56 27 55 55 38 12 -9 41 -19 63 -23 22 -4 44
-12 48 -18 13 -16 8 -5 -57 158 -34 83 -63 142 -67 135 -4 -7 -14 -9 -25 -4
-11 4 -43 10 -73 14 -79 9 -76 27 5 36 59 6 70 5 82 -12 8 -10 13 -13 11 -7
-14 41 -214 532 -217 530 -1 -2 2 -15 7 -30 11 -29 9 -31 -19 -16 -42 22 -64
-41 -46 -132 5 -28 5 -28 -46 -28 l-51 0 6 56 c3 31 3 62 0 70 -7 18 -44 18
-90 -1 -19 -8 -39 -15 -44 -15 -5 0 -20 25 -34 55 -28 64 -47 70 -97 27 -69
-58 -64 -58 -93 -7 -31 52 -51 66 -80 55z m82 -76 l27 -42 51 40 50 40 -44
-41 c-46 -43 -50 -66 -7 -37 39 25 67 59 61 74 -3 8 0 12 7 10 7 -2 24 -27 37
-56 27 -57 34 -59 88 -37 70 30 89 15 57 -46 -18 -36 -15 -74 6 -75 8 -1 36
-2 61 -2 31 -1 49 -7 53 -17 3 -8 0 -14 -6 -12 -6 1 -18 -15 -26 -37 -15 -37
-15 -39 7 -57 13 -11 31 -19 40 -19 9 0 28 -6 42 -14 35 -18 127 2 107 23 -11
11 -9 12 8 3 19 -10 54 -76 54 -101 0 -5 -15 -11 -32 -14 -59 -9 -270 -56
-276 -62 -3 -3 36 -5 86 -5 67 0 94 -4 106 -15 8 -8 27 -15 43 -15 36 -1 120
-23 132 -35 5 -6 18 -32 29 -60 11 -27 23 -59 27 -69 8 -19 8 -19 -23 0 -27
15 -32 25 -34 59 l-1 40 -4 -40 c-2 -22 -10 -54 -18 -72 -8 -17 -15 -36 -15
-42 0 -22 -23 -60 -33 -54 -6 4 -8 0 -4 -11 5 -14 3 -15 -13 -6 -11 6 -24 19
-30 30 -13 23 -13 124 -1 168 10 32 -2 46 -13 16 -5 -14 -20 -15 -118 -9 -109
7 -111 7 -106 -13 10 -37 -116 -112 -277 -167 -87 -29 -211 -56 -253 -54 l-27
1 25 8 c18 6 2 8 -52 9 -100 1 -209 23 -283 56 -75 33 -95 36 -159 19 -28 -8
-64 -13 -81 -13 -29 1 -30 1 -5 9 17 5 19 8 7 9 -9 1 -35 12 -56 25 -41 26
-41 26 -15 152 3 19 1 34 -5 38 -20 13 -11 54 23 104 18 28 29 49 22 46 -6 -2
-20 -17 -31 -34 -11 -16 -21 -27 -24 -24 -2 2 17 31 42 64 51 65 51 76 3 33
-31 -28 -31 -27 2 7 17 20 32 41 32 48 0 16 73 68 116 82 19 6 34 16 34 22 0
6 -7 7 -16 4 -10 -4 -14 -1 -11 6 4 13 26 14 112 4 l50 -7 -3 56 c-3 42 -8 55
-20 55 -11 0 -13 3 -6 10 8 8 31 3 79 -15 37 -14 74 -25 83 -25 21 0 52 29 52
49 0 14 -2 14 -10 1 -12 -19 -12 -13 0 29 8 30 8 33 -11 28 -13 -3 -19 -1 -16
6 8 25 44 16 91 -23 l50 -41 34 38 34 38 -28 -38 c-33 -46 -26 -57 15 -26 28
20 36 32 29 42 -2 2 4 12 12 22 14 17 13 18 -10 12 -24 -6 -24 -5 -6 8 17 13
22 13 38 -2 10 -9 30 -36 45 -59z m555 -159 c50 -56 67 -88 41 -78 -11 5 -14
3 -8 -6 13 -22 -27 4 -56 36 -37 40 -61 91 -75 162 -7 37 10 28 31 -16 12 -26
42 -70 67 -98z m9 -107 c30 -27 31 -28 4 -10 -30 20 -62 53 -80 82 -6 9 2 3
16 -14 14 -16 41 -42 60 -58z m8 -52 c-11 -13 -119 12 -125 29 -3 7 1 28 9 48
l15 35 54 -52 c30 -28 51 -55 47 -60z m-1329 29 c-7 -8 -17 -15 -23 -15 -6 0
-2 7 9 15 25 19 30 19 14 0z m-60 -55 c-11 -16 -26 -33 -32 -36 -7 -4 1 9 16
29 34 44 46 50 16 7z m1257 -296 c-3 -3 -12 -4 -19 -1 -8 3 -5 6 6 6 11 1 17
-2 13 -5z m-79 -57 c-26 -23 -62 -50 -80 -60 -32 -17 -32 -17 -8 0 13 10 47
37 75 60 65 54 74 54 13 0z m189 37 c-3 -3 -12 -4 -19 -1 -8 3 -5 6 6 6 11 1
17 -2 13 -5z m20 -36 c-3 -7 -5 -2 -5 12 0 14 2 19 5 13 2 -7 2 -19 0 -25z
m232 -24 c14 -12 -19 -1 -35 12 -18 14 -18 14 6 3 14 -6 27 -13 29 -15z
m-1674 -34 c10 -11 16 -20 13 -20 -3 0 -13 9 -23 20 -10 11 -16 20 -13 20 3 0
13 -9 23 -20z m270 10 c-3 -5 -12 -10 -18 -10 -7 0 -6 4 3 10 19 12 23 12 15
0z m1351 -6 c18 -14 18 -14 -6 -3 -31 14 -36 19 -24 19 6 0 19 -7 30 -16z
m-506 -29 c0 -2 -13 -11 -30 -20 -38 -19 -40 -11 -2 9 31 17 32 18 32 11z
m-993 -11 c-3 -3 -12 -4 -19 -1 -8 3 -5 6 6 6 11 1 17 -2 13 -5z m1373 -40 c0
-2 -9 0 -20 6 -11 6 -20 13 -20 16 0 2 9 0 20 -6 11 -6 20 -13 20 -16z m-460
6 c-8 -5 -19 -10 -25 -10 -5 0 -3 5 5 10 8 5 20 10 25 10 6 0 3 -5 -5 -10z
m-810 -14 c0 -11 -19 -15 -25 -6 -3 5 1 10 9 10 9 0 16 -2 16 -4z m760 -6 c-8
-5 -19 -10 -25 -10 -5 0 -3 5 5 10 8 5 20 10 25 10 6 0 3 -5 -5 -10z m-634
-25 c3 -8 -1 -36 -10 -62 -20 -59 -20 -63 2 -63 28 0 99 -55 117 -90 20 -40 5
-74 -28 -64 -44 13 -151 65 -169 81 -25 23 -23 78 7 138 14 28 23 41 19 30
-17 -53 -12 -55 13 -7 28 54 40 63 49 37z m107 -32 c-7 -2 -19 -2 -25 0 -7 3
-2 5 12 5 14 0 19 -2 13 -5z m-303 -40 c0 -5 -10 -19 -21 -33 l-21 -25 18 33
c18 32 24 38 24 25z m421 -38 c34 -18 69 -70 68 -100 -1 -17 -2 -16 -9 5 -4
14 -8 19 -9 11 -1 -9 -8 -11 -23 -7 -13 3 -54 11 -93 17 -86 14 -141 50 -124
81 10 19 18 20 85 14 41 -3 88 -13 105 -21z m-353 -150 c15 -14 44 -31 65 -37
26 -8 37 -17 37 -31 0 -14 -5 -17 -17 -13 -30 12 -77 47 -101 77 -29 36 -20
38 16 4z m-88 -35 c14 -11 30 -20 37 -20 6 0 15 -4 18 -10 4 -6 -1 -7 -12 -3
-24 9 -83 44 -83 49 0 9 16 2 40 -16z m100 -50 c8 -5 11 -10 5 -10 -5 0 -17 5
-25 10 -8 5 -10 10 -5 10 6 0 17 -5 25 -10z"/>
<path d="M721 1347 c2 -1 13 -9 24 -17 19 -14 19 -14 6 3 -7 9 -18 17 -24 17
-6 0 -8 -1 -6 -3z"/>
<path d="M704 1193 c-9 -6 -35 -15 -57 -18 -50 -9 -89 -27 -140 -68 -46 -35
-43 -46 5 -17 29 17 37 18 53 7 16 -12 11 -17 -56 -54 -41 -22 -85 -44 -98
-48 -21 -6 -22 -9 -10 -19 9 -7 14 -28 14 -56 0 -50 11 -57 69 -46 30 6 32 8
34 57 3 66 24 104 70 128 20 11 61 39 89 63 29 23 65 53 80 65 l28 22 -32 -2
c-18 -1 -40 -7 -49 -14z"/>
<path d="M1223 1169 c-43 -32 -53 -45 -53 -70 0 -37 24 -85 49 -99 25 -13 66
2 80 29 22 40 7 182 -18 181 -3 0 -30 -18 -58 -41z m63 -24 c18 -28 15 -60 -6
-60 -19 0 -45 48 -37 68 9 24 24 21 43 -8z"/>
<path d="M726 1052 c-3 -6 -4 -16 -2 -24 2 -7 7 -25 10 -41 9 -38 73 -107 101
-107 29 0 58 34 58 68 0 45 -12 81 -31 90 -27 15 -129 24 -136 14z m154 -79
c0 -33 -30 -27 -48 10 -11 23 -11 31 -1 44 12 13 15 13 31 -7 10 -12 18 -33
18 -47z"/>
<path d="M1603 1013 c15 -2 37 -2 50 0 12 2 0 4 -28 4 -27 0 -38 -2 -22 -4z"/>
<path d="M1062 921 c-50 -18 -89 -40 -47 -28 11 4 47 13 79 22 32 8 61 17 64
20 11 11 -46 3 -96 -14z"/>
<path d="M1600 1255 c0 -8 4 -15 9 -15 5 0 18 -3 28 -7 17 -6 17 -5 -1 15 -22
26 -36 28 -36 7z"/>
<path d="M758 533 c7 -3 16 -2 19 1 4 3 -2 6 -13 5 -11 0 -14 -3 -6 -6z"/>
<path d="M1692 1470 c25 -68 61 -150 65 -146 5 4 -54 147 -64 156 -3 3 -4 -2
-1 -10z"/>
<path d="M1762 1300 c33 -89 242 -597 249 -604 5 -5 11 -7 15 -3 3 3 -10 36
-30 74 -20 37 -79 173 -131 302 -52 129 -98 237 -102 240 -3 3 -4 -1 -1 -9z"/>
<path d="M2215 1245 c-102 -26 -171 -48 -173 -57 -3 -7 -29 -37 -58 -66 -57
-55 -62 -68 -41 -95 11 -15 22 -13 137 17 110 29 246 55 213 40 -6 -3 -83 -24
-170 -47 -152 -41 -158 -44 -155 -67 1 -14 13 -36 26 -49 l24 -24 144 41 c78
23 164 47 191 53 l47 11 0 144 c0 79 -3 144 -7 143 -5 0 -84 -20 -178 -44z"/>
<path d="M1910 1025 c0 -5 5 -17 10 -25 5 -8 10 -10 10 -5 0 6 -5 17 -10 25
-5 8 -10 11 -10 5z"/>
<path d="M1930 975 c0 -5 5 -17 10 -25 5 -8 10 -10 10 -5 0 6 -5 17 -10 25 -5
8 -10 11 -10 5z"/>
<path d="M2340 969 c-19 -6 -96 -26 -170 -46 -74 -20 -136 -37 -138 -38 -8 -7
52 -85 62 -82 6 3 77 21 159 42 l147 38 0 48 c0 53 -1 54 -60 38z"/>
<path d="M1953 920 c3 -8 24 -61 46 -117 23 -57 41 -107 41 -112 0 -17 -40
-19 -50 -3 -5 10 -10 12 -10 6 0 -21 24 -32 48 -23 20 8 23 14 17 40 -5 21 -2
36 9 48 15 16 14 21 -11 58 -37 53 -97 122 -90 103z m93 -124 c3 -10 2 -22 -4
-28 -6 -6 -19 10 -36 47 -14 32 -26 60 -26 64 1 10 59 -63 66 -83z"/>
<path d="M1530 815 c-13 -14 -47 -41 -77 -62 -29 -20 -52 -37 -51 -38 2 -2 40
9 85 24 70 22 84 30 97 57 23 50 -13 63 -54 19z"/>
<path d="M1465 714 c-40 -14 -71 -20 -73 -14 -2 5 -34 -6 -70 -24 -117 -59
-299 -106 -411 -106 l-55 0 32 -31 c18 -17 36 -48 42 -69 l10 -38 77 29 c42
16 187 67 322 112 l246 83 -9 42 c-11 49 -13 49 -111 16z"/>
<path d="M1682 541 c-13 -8 -82 -193 -82 -221 0 -11 26 -50 57 -87 l57 -67 4
-83 c5 -92 19 -111 24 -31 3 57 -3 53 105 64 l61 6 7 -49 c4 -26 12 -55 17
-63 7 -11 8 -6 4 16 -21 126 -20 131 10 150 38 24 41 30 59 90 27 89 36 166
22 182 -35 43 -308 116 -345 93z m130 -25 c80 -16 174 -49 199 -72 15 -13 15
-22 3 -84 -24 -127 -34 -150 -75 -171 -56 -28 -120 -25 -149 6 -13 14 -21 25
-18 25 4 0 -21 27 -54 60 -53 54 -59 63 -53 90 8 35 -2 40 -14 8 -23 -63 -23
-62 40 -134 33 -38 56 -70 50 -72 -9 -3 -35 23 -109 107 -18 20 -21 33 -17 59
12 67 25 82 67 82 22 0 37 4 33 10 -3 5 -12 7 -20 3 -9 -3 -15 1 -15 8 0 11
-2 11 -10 -1 -18 -29 -22 1 -6 45 20 52 28 54 148 31z m61 -383 c-13 -2 -33
-2 -45 0 -13 2 -3 4 22 4 25 0 35 -2 23 -4z"/>
<path d="M1952 420 c0 -19 2 -27 5 -17 2 9 2 25 0 35 -3 9 -5 1 -5 -18z"/>
<path d="M1775 370 c-16 -7 -17 -9 -3 -9 9 -1 20 4 23 9 7 11 7 11 -20 0z"/>
<path d="M1800 346 c0 -2 7 -7 16 -10 8 -3 12 -2 9 4 -6 10 -25 14 -25 6z"/>
<path d="M1936 335 c-3 -8 -1 -15 4 -15 6 0 10 7 10 15 0 8 -2 15 -4 15 -2 0
-6 -7 -10 -15z"/>
<path d="M1877 329 c7 -7 15 -10 18 -7 3 3 -2 9 -12 12 -14 6 -15 5 -6 -5z"/>
<path d="M2204 428 c-48 -52 -102 -131 -124 -183 l-20 -48 24 -41 c25 -41 84
-114 70 -86 -4 8 -23 37 -41 64 -18 26 -33 57 -33 68 0 38 85 174 138 222 25
21 51 17 125 -19 26 -13 47 -20 47 -16 0 8 -93 52 -136 65 -14 4 -28 -3 -50
-26z"/>
<path d="M2188 363 c-29 -34 -30 -43 -6 -43 19 0 23 6 24 30 1 35 1 35 -18 13z"/>
<path d="M242 238 c-141 -65 -150 -74 -101 -111 l27 -19 108 49 c60 27 135 60
168 74 l59 24 -49 22 c-27 12 -56 22 -64 22 -8 1 -75 -27 -148 -61z"/>
<path d="M2120 260 c-11 -21 -20 -46 -20 -53 0 -21 80 -138 90 -132 5 3 -10
32 -33 65 l-41 60 16 50 c9 27 14 50 12 50 -2 0 -13 -18 -24 -40z"/>
<path d="M2283 223 c9 -2 23 -2 30 0 6 3 -1 5 -18 5 -16 0 -22 -2 -12 -5z"/>
<path d="M826 202 c-11 -18 -66 -173 -66 -185 1 -7 16 28 35 77 19 49 38 93
42 97 10 10 83 0 83 -11 0 -3 12 -5 28 -3 15 2 54 -5 87 -15 58 -17 60 -19 66
-58 6 -37 6 -37 8 -6 1 36 1 36 37 20 25 -12 26 -15 20 -68 -4 -41 -3 -50 5
-37 5 9 9 36 7 59 -3 38 -7 45 -44 65 -73 40 -294 87 -308 65z"/>
<path d="M1323 148 c-36 -51 -73 -122 -73 -140 0 -7 12 10 26 37 36 70 75 125
89 125 20 0 134 -40 192 -67 l55 -26 -5 -40 c-4 -26 -2 -36 5 -29 5 5 8 25 6
43 -4 48 -54 75 -249 134 -10 4 -26 -10 -46 -37z"/>
<path d="M822 115 c-6 -14 -8 -25 -3 -25 8 0 23 41 17 47 -1 2 -8 -8 -14 -22z"/>
<path d="M1332 108 c-21 -32 -20 -48 0 -48 6 0 9 3 5 6 -3 4 0 22 8 40 18 43
13 43 -13 2z"/>
<path d="M931 104 c0 -11 3 -14 6 -6 3 7 2 16 -1 19 -3 4 -6 -2 -5 -13z"/>
<path d="M985 90 c3 -5 8 -10 11 -10 2 0 4 5 4 10 0 6 -5 10 -11 10 -5 0 -7
-4 -4 -10z"/>
<path d="M1750 45 c0 -33 4 -45 15 -45 11 0 15 12 15 45 0 33 -4 45 -15 45
-11 0 -15 -12 -15 -45z"/>
<path d="M800 46 c-12 -34 -13 -46 -1 -46 11 0 26 59 17 67 -3 3 -10 -6 -16
-21z"/>
<path d="M442 35 c-12 -9 -22 -21 -22 -27 0 -6 9 -3 21 8 20 18 22 18 71 0 27
-9 52 -15 54 -13 4 4 -13 12 -91 43 -6 2 -20 -3 -33 -11z"/>
<path d="M930 31 c0 -6 4 -13 10 -16 6 -3 7 1 4 9 -7 18 -14 21 -14 7z"/>
<path d="M1287 26 c-4 -10 -5 -21 -2 -24 9 -9 17 6 13 25 -3 17 -4 17 -11 -1z"/>
</g>
</svg>
